<svg width="24" height="24" viewBox="0 0 24 24" fill="none" xmlns="http://www.w3.org/2000/svg">
<path fill-rule="evenodd" clip-rule="evenodd" d="M4.70708 4.8492C5.0976 4.45867 5.73077 4.45867 6.12129 4.8492L18.8492 17.5771C19.2397 17.9676 19.2397 18.6008 18.8492 18.9913C18.4587 19.3819 17.8255 19.3819 17.435 18.9913L4.70708 6.26341C4.31655 5.87289 4.31655 5.23972 4.70708 4.8492Z" fill="#CBA860"/>
<path fill-rule="evenodd" clip-rule="evenodd" d="M5.12129 18.8492C4.73077 18.4587 4.73077 17.8255 5.12129 17.435L17.8492 4.70706C18.2397 4.31654 18.8729 4.31654 19.2634 4.70706C19.654 5.09759 19.654 5.73075 19.2634 6.12127L6.5355 18.8492C6.14498 19.2397 5.51182 19.2397 5.12129 18.8492Z" fill="#CBA860"/>
</svg>
