<svg width="40" height="40" viewBox="0 0 40 40" fill="none" xmlns="http://www.w3.org/2000/svg">
<path fill-rule="evenodd" clip-rule="evenodd" d="M8.21489 31.7851C7.56401 31.1342 7.56401 30.0789 8.21489 29.4281L29.4281 8.21485C30.079 7.56398 31.1342 7.56398 31.7851 8.21485C32.436 8.86573 32.436 9.921 31.7851 10.5719L10.5719 31.7851C9.92104 32.436 8.86576 32.436 8.21489 31.7851Z" fill="#CBA860"/>
<path fill-rule="evenodd" clip-rule="evenodd" d="M8.21486 8.21489C8.86573 7.56401 9.92101 7.56401 10.5719 8.21489L31.7851 29.4281C32.436 30.079 32.436 31.1342 31.7851 31.7851C31.1342 32.436 30.0789 32.436 29.4281 31.7851L8.21486 10.5719C7.56399 9.92104 7.56399 8.86576 8.21486 8.21489Z" fill="#CBA860"/>
</svg>
