<svg width="31" height="30" viewBox="0 0 31 30" fill="none" xmlns="http://www.w3.org/2000/svg">
<g clip-path="url(#clip0_8_523)">
<mask id="path-1-inside-1_8_523" fill="white">
<path d="M25.7765 4.39342C22.9434 1.56023 19.1765 0 15.1699 0C11.1633 0 7.39647 1.56023 4.56334 4.39342C1.73016 7.22654 0.169922 10.9934 0.169922 15C0.169922 19.0066 1.73016 22.7735 4.56334 25.6066C7.39647 28.4398 11.1633 30 15.1699 30C19.1765 30 22.9434 28.4398 25.7765 25.6066C28.6096 22.7734 30.1699 19.0066 30.1699 15C30.1699 10.9934 28.6097 7.22654 25.7765 4.39342ZM15.1699 29.0527C7.42125 29.0527 1.11727 22.7487 1.11727 15C1.11727 7.25133 7.42125 0.947344 15.1699 0.947344C22.9186 0.947344 29.2226 7.25133 29.2226 15C29.2226 22.7487 22.9186 29.0527 15.1699 29.0527Z"/>
</mask>
<path d="M25.7765 4.39342C22.9434 1.56023 19.1765 0 15.1699 0C11.1633 0 7.39647 1.56023 4.56334 4.39342C1.73016 7.22654 0.169922 10.9934 0.169922 15C0.169922 19.0066 1.73016 22.7735 4.56334 25.6066C7.39647 28.4398 11.1633 30 15.1699 30C19.1765 30 22.9434 28.4398 25.7765 25.6066C28.6096 22.7734 30.1699 19.0066 30.1699 15C30.1699 10.9934 28.6097 7.22654 25.7765 4.39342ZM15.1699 29.0527C7.42125 29.0527 1.11727 22.7487 1.11727 15C1.11727 7.25133 7.42125 0.947344 15.1699 0.947344C22.9186 0.947344 29.2226 7.25133 29.2226 15C29.2226 22.7487 22.9186 29.0527 15.1699 29.0527Z" fill="black"/>
<path d="M25.7765 4.39342L25.0694 5.10052L25.0694 5.10053L25.7765 4.39342ZM4.56334 4.39342L5.27044 5.10053L5.27045 5.10052L4.56334 4.39342ZM4.56334 25.6066L5.27045 24.8995L5.27044 24.8995L4.56334 25.6066ZM26.4836 3.68632C23.4629 0.665587 19.4417 -1 15.1699 -1V1C18.9113 1 22.4238 2.45488 25.0694 5.10052L26.4836 3.68632ZM15.1699 -1C10.8981 -1 6.87689 0.665587 3.85623 3.68632L5.27045 5.10052C7.91604 2.45488 11.4285 1 15.1699 1V-1ZM3.85624 3.6863C0.835509 6.70697 -0.830078 10.7282 -0.830078 15H1.16992C1.16992 11.2586 2.6248 7.74611 5.27044 5.10053L3.85624 3.6863ZM-0.830078 15C-0.830078 19.2718 0.835509 23.293 3.85624 26.3137L5.27044 24.8995C2.6248 22.2539 1.16992 18.7414 1.16992 15H-0.830078ZM3.85623 26.3137C6.87689 29.3344 10.8981 31 15.1699 31V29C11.4285 29 7.91604 27.5451 5.27045 24.8995L3.85623 26.3137ZM15.1699 31C19.4417 31 23.4629 29.3344 26.4836 26.3137L25.0694 24.8995C22.4238 27.5451 18.9113 29 15.1699 29V31ZM26.4836 26.3137C29.5043 23.293 31.1699 19.2718 31.1699 15H29.1699C29.1699 18.7414 27.715 22.2538 25.0694 24.8995L26.4836 26.3137ZM31.1699 15C31.1699 10.7282 29.5043 6.70697 26.4836 3.6863L25.0694 5.10053C27.715 7.74611 29.1699 11.2586 29.1699 15H31.1699ZM15.1699 28.0527C7.97353 28.0527 2.11727 22.1964 2.11727 15H0.117266C0.117266 23.301 6.86897 30.0527 15.1699 30.0527V28.0527ZM2.11727 15C2.11727 7.80361 7.97353 1.94734 15.1699 1.94734V-0.0526563C6.86897 -0.0526563 0.117266 6.69904 0.117266 15H2.11727ZM15.1699 1.94734C22.3663 1.94734 28.2226 7.80361 28.2226 15H30.2226C30.2226 6.69904 23.4709 -0.0526563 15.1699 -0.0526563V1.94734ZM28.2226 15C28.2226 22.1964 22.3663 28.0527 15.1699 28.0527V30.0527C23.4709 30.0527 30.2226 23.301 30.2226 15H28.2226Z" fill="black" mask="url(#path-1-inside-1_8_523)"/>
<path d="M23.6653 5.77961C23.5199 5.67004 23.3245 5.65364 23.1628 5.73731L4.84694 15.211C4.68862 15.2928 4.58966 15.4567 4.59083 15.635C4.592 15.8132 4.69319 15.9757 4.85269 16.0554L9.64355 18.4507V23.1972C9.64355 23.3214 9.68579 23.4443 9.77128 23.5345C9.86585 23.6343 9.99154 23.6843 10.1173 23.6843C10.1965 23.6843 10.2757 23.6645 10.3474 23.6247L15.8285 20.5796L20.0236 22.3775C20.1128 22.4158 20.2116 22.4316 20.3071 22.4138C20.5037 22.3771 20.6499 22.2265 20.6871 22.0404L21.7486 16.7332C21.8071 16.44 21.583 16.1666 21.284 16.1666C21.0582 16.1665 20.8638 16.3258 20.8195 16.5472L19.8726 21.2821L15.9881 19.6173C15.8535 19.5596 15.6996 19.5675 15.5714 19.6386L10.591 22.4055V18.158C10.591 17.9785 10.4896 17.8146 10.3291 17.7343L6.10946 15.6245L22.7226 7.03147L21.2809 14.2398C21.2223 14.533 21.4464 14.8064 21.7454 14.8064C21.9711 14.8064 22.1656 14.647 22.2099 14.4256L23.8449 6.25082C23.8805 6.07235 23.8108 5.88913 23.6653 5.77961Z" fill="black"/>
<path d="M20.5942 9.65373C20.4453 9.46529 20.1789 9.41795 19.9743 9.54398L11.7637 14.5966C11.6236 14.6828 11.5383 14.8356 11.5383 15.0001V20.0527C11.5383 20.2724 11.6893 20.4632 11.9031 20.5137C11.9395 20.5223 11.976 20.5265 12.0121 20.5265C12.1883 20.5265 12.3541 20.4277 12.4356 20.2646L14.2959 16.5439L20.5574 10.2824C20.7273 10.1125 20.7431 9.84228 20.5942 9.65373ZM13.5717 15.9282C13.5358 15.9642 13.5058 16.0058 13.4831 16.0513L12.4857 18.0461V15.2647L17.0347 12.4653L13.5717 15.9282Z" fill="black"/>
</g>
<defs>
<clipPath id="clip0_8_523">
<rect width="30" height="30" fill="white" transform="translate(0.169922)"/>
</clipPath>
</defs>
</svg>
