<svg width="31" height="30" viewBox="0 0 31 30" fill="none" xmlns="http://www.w3.org/2000/svg">
<g clip-path="url(#clip0_8_516)">
<path d="M15.1699 0C6.89858 0 0.169922 6.72865 0.169922 15C0.169922 17.8217 0.95396 20.561 2.44127 22.9396C1.84877 25.0154 0.778576 28.9419 0.767037 28.9829C0.711653 29.186 0.771076 29.4029 0.922806 29.5488C1.07454 29.6948 1.29377 29.7467 1.49338 29.6856L7.43915 27.8567C9.76819 29.2598 12.4353 30 15.1699 30C23.4413 30 30.1699 23.2713 30.1699 15C30.1699 6.72865 23.4413 0 15.1699 0ZM15.1699 28.8462C12.5628 28.8462 10.0232 28.1175 7.82511 26.7398C7.73223 26.6815 7.6255 26.6521 7.51877 26.6521C7.46165 26.6521 7.40454 26.6608 7.34915 26.6775L2.15742 28.2756C2.53877 26.8835 3.22415 24.3935 3.62165 23.0083C3.66781 22.8479 3.64184 22.6748 3.55127 22.5346C2.09396 20.2921 1.32377 17.6867 1.32377 15C1.32377 7.36558 7.5355 1.15385 15.1699 1.15385C22.8043 1.15385 29.0161 7.36558 29.0161 15C29.0161 22.6344 22.8043 28.8462 15.1699 28.8462Z" fill="black"/>
<path d="M24.969 18.5341C23.904 17.9428 22.9971 17.3497 22.3354 16.917C21.83 16.587 21.4648 16.3487 21.1971 16.2143C20.4488 15.841 19.8817 16.1047 19.666 16.3228C19.6388 16.3499 19.6146 16.3793 19.5938 16.4105C18.8167 17.5764 17.8019 18.6916 17.5048 18.7516C17.1615 18.698 15.5548 17.7847 13.9579 16.4549C12.3275 15.0962 11.3017 13.7953 11.1512 12.9091C12.1971 11.8326 12.5738 11.1553 12.5738 10.3845C12.5738 9.59007 10.7208 6.27334 10.3856 5.93815C10.0492 5.60238 9.29173 5.54988 8.13384 5.78065C8.0225 5.80315 7.9198 5.85796 7.83904 5.93815C7.69884 6.07834 4.41846 9.42276 5.9773 13.4762C7.68846 17.9249 12.0806 23.0958 17.6802 23.9358C18.3165 24.031 18.9131 24.0783 19.4715 24.0783C22.7658 24.0783 24.71 22.4208 25.2575 19.133C25.2985 18.8924 25.1825 18.6524 24.969 18.5341ZM17.8515 22.7947C11.93 21.9068 8.20019 16.0401 7.05442 13.062C5.91788 10.1081 8.01384 7.47449 8.54 6.87911C8.96807 6.80642 9.41865 6.77584 9.60673 6.80526C9.99961 7.35161 11.36 9.9218 11.42 10.3845C11.42 10.6874 11.3213 11.1091 10.1467 12.2843C10.0383 12.3922 9.97769 12.5387 9.97769 12.6922C9.97769 15.713 16.3492 19.9037 17.4777 19.9037C18.459 19.9037 19.7387 18.2543 20.4673 17.1795C20.5094 17.1812 20.5804 17.1956 20.6813 17.2464C20.889 17.3508 21.249 17.5856 21.7042 17.8833C22.3054 18.2762 23.1038 18.7978 24.0465 19.3383C23.6185 21.398 22.4219 23.4812 17.8515 22.7947Z" fill="black"/>
</g>
<defs>
<clipPath id="clip0_8_516">
<rect width="30" height="30" fill="white" transform="translate(0.169922)"/>
</clipPath>
</defs>
</svg>
