<svg width="28" height="30" viewBox="0 0 28 30" fill="none" xmlns="http://www.w3.org/2000/svg">
<g clip-path="url(#clip0_8_533)">
<path d="M16.4157 0H10.7542C4.82434 0 0 4.86812 0 10.852V15.9995C0 20.4557 2.71302 24.4606 6.79245 26.0917V29.4287C6.79245 29.6549 6.92434 29.8595 7.12925 29.9509C7.20283 29.984 7.28094 30 7.35849 30C7.49604 30 7.63245 29.9492 7.7383 29.852L11.0208 26.8515H16.4157C22.3455 26.8515 27.1698 21.9834 27.1698 15.9995V10.852C27.1698 4.86812 22.3455 0 16.4157 0ZM26.0377 15.9995C26.0377 21.3532 21.7217 25.7089 16.4157 25.7089H10.8023C10.6619 25.7089 10.5266 25.7615 10.4225 25.8569L7.92453 28.1404V25.6958C7.92453 25.4535 7.7734 25.2376 7.54698 25.1576C3.71038 23.7882 1.13208 20.1078 1.13208 15.9995V10.852C1.13208 5.49828 5.44868 1.14262 10.7542 1.14262H16.4157C21.7217 1.14262 26.0377 5.49828 26.0377 10.852V15.9995Z" fill="black"/>
<path d="M20.6877 17.4681L17.2403 15.1679C16.8634 14.9161 16.4146 14.8308 15.9755 14.9242C15.5357 15.0193 15.1577 15.286 14.9125 15.675L14.7504 15.9308C13.2584 15.4243 11.6133 14.7773 10.6283 11.8485L11.0361 11.4843C11.7361 10.8592 11.8096 9.76556 11.201 9.04533L8.50415 5.85842C8.3011 5.61815 7.94661 5.59338 7.71271 5.80138L6.01932 7.3133C4.53404 8.63969 5.22788 10.6016 5.45617 11.2464C5.46627 11.2752 5.47861 11.3028 5.49319 11.3299C5.55209 11.4382 6.95828 14.0161 9.2294 16.3923C11.5095 18.7783 15.626 20.9817 15.7522 21.0456C16.2223 21.3591 16.7512 21.5095 17.2745 21.5095C18.1933 21.5095 19.0941 21.0468 19.6315 20.1986L20.8531 18.2661C21.0214 17.9982 20.9474 17.6415 20.6877 17.4681ZM18.6903 19.5706C18.1849 20.3703 17.1405 20.5974 16.3159 20.0511C16.275 20.0292 12.1854 17.8414 10.0298 15.5857C8.01504 13.4774 6.67727 11.1352 6.49497 10.8085C6.05073 9.52875 6.12926 8.74225 6.75524 8.18335L8.02569 7.04941L10.3546 9.80129C10.5616 10.0456 10.5374 10.4028 10.3007 10.6143L9.61251 11.2285C9.44479 11.3783 9.37861 11.6151 9.44423 11.8329C10.6177 15.7499 12.8994 16.5191 14.5653 17.0809L14.8082 17.1633C15.0511 17.2474 15.317 17.1512 15.4561 16.9311L15.8537 16.3019C15.9356 16.1716 16.0613 16.0835 16.2071 16.0518C16.3535 16.0195 16.5027 16.0495 16.6295 16.1342L19.6068 18.1203L18.6903 19.5706Z" fill="black"/>
<path d="M14.8989 9.07959C14.5866 8.98993 14.262 9.17101 14.1734 9.48279C14.0848 9.79398 14.2656 10.1181 14.5772 10.2066C15.4518 10.455 16.1485 11.1518 16.395 12.0256C16.4678 12.2835 16.7032 12.4529 16.9597 12.4529C17.0125 12.4529 17.0659 12.4458 17.1193 12.4312C17.431 12.3433 17.613 12.0198 17.5249 11.708C17.1686 10.4457 16.162 9.43825 14.8989 9.07959Z" fill="black"/>
<path d="M19.2447 12.4529C19.2957 12.4529 19.3472 12.4461 19.3987 12.432C19.6998 12.3472 19.8747 12.0348 19.7898 11.7348C19.1219 9.37155 17.2376 7.48683 14.8716 6.81452C14.5711 6.72808 14.2581 6.90378 14.1726 7.20378C14.0871 7.50378 14.2615 7.8162 14.562 7.90151C16.5527 8.46647 18.1382 10.0535 18.7002 12.0416C18.771 12.2901 18.9974 12.4529 19.2447 12.4529Z" fill="black"/>
<path d="M14.3026 4.55033C14.003 4.46434 13.6916 4.638 13.6066 4.93753C13.5215 5.23595 13.695 5.54673 13.994 5.63159C17.3498 6.58415 20.023 9.25808 20.9702 12.6092C21.04 12.8565 21.2658 13.0189 21.5119 13.0189C21.5626 13.0189 21.6139 13.0121 21.6651 12.9981C21.9641 12.9138 22.1387 12.603 22.0542 12.3046C21.0017 8.58032 18.0317 5.60967 14.3026 4.55033Z" fill="black"/>
</g>
<defs>
<clipPath id="clip0_8_533">
<rect width="27.1698" height="30" fill="white"/>
</clipPath>
</defs>
</svg>
