<svg width="261" height="88" viewBox="0 0 261 88" fill="none" xmlns="http://www.w3.org/2000/svg">
<path d="M17.2427 19.6694C17.2427 21.2657 16.8955 22.7149 16.2012 24.0171C15.5069 25.3192 14.5451 26.3364 13.3144 27.072C12.0837 27.8076 10.7044 28.1754 9.17186 28.1754C7.92706 28.1754 6.81363 27.9829 5.83312 27.5994C4.85261 27.216 3.91902 26.6088 3.03077 25.7793C2.62262 26.4961 2.23479 27.2692 1.8673 28.0987H0.0782968V19.4409H1.83915C2.25825 20.4472 2.61167 21.2078 2.9041 21.7227C3.19497 22.2392 3.57967 22.7791 4.05976 23.3441C5.49847 24.9921 7.18269 25.8153 9.11243 25.8153C10.3995 25.8153 11.4628 25.4162 12.3057 24.618C13.1486 23.8199 13.5693 22.8167 13.5693 21.61C13.5693 20.6554 13.3191 19.84 12.8187 19.167C12.3182 18.494 11.6646 17.9353 10.8592 17.4877C10.0523 17.0417 8.97013 16.5612 7.61274 16.0447C6.58219 15.655 5.70176 15.2873 4.97146 14.9414C4.24116 14.5955 3.63127 14.2402 3.1418 13.8756C2.65233 13.5109 2.18788 13.0586 1.74845 12.5171C1.10572 11.7377 0.661599 10.9677 0.416081 10.2071C0.170562 9.44652 0.048584 8.51846 0.048584 7.4245C0.048584 5.96588 0.339453 4.68724 0.921191 3.58701C1.50293 2.48679 2.33957 1.63541 3.43267 1.03131C4.52421 0.427201 5.7909 0.126709 7.2296 0.126709C8.15851 0.126709 9.09054 0.309817 10.0241 0.672907C10.9577 1.03756 11.8382 1.56654 12.6654 2.25673C13.0642 1.67923 13.3644 1.05634 13.5693 0.389635H15.3614V7.76411H13.8148C11.9461 4.1426 9.7317 2.33186 7.16862 2.33186C6.05518 2.33186 5.14035 2.64016 4.41944 3.25679C3.70008 3.87342 3.34041 4.67159 3.34041 5.65287C3.34041 6.48234 3.64848 7.2179 4.26618 7.85957C4.88389 8.50124 5.57978 9.01301 6.357 9.39644C7.13265 9.77988 8.09283 10.1915 9.23597 10.6313C10.3478 11.046 11.3643 11.4889 12.2838 11.9615C13.2034 12.4326 14.0291 12.9992 14.764 13.6596C15.499 14.3201 16.0964 15.1433 16.5562 16.1308C17.0128 17.1199 17.2427 18.2984 17.2427 19.6694Z" fill="#CBA860"/>
<path d="M43.0363 27.5917H32.8074V25.5931C33.5737 25.4804 34.0835 25.3318 34.3384 25.1502C34.5933 24.9687 34.7215 24.676 34.7215 24.2738C34.7215 23.7464 34.44 23.0984 33.8786 22.3316L27.6156 14.1464V21.5772C27.6156 22.9983 27.822 24.0077 28.2364 24.604C28.6492 25.2019 29.3623 25.5321 30.3726 25.5947V27.5932H20.3579V25.5947C21.3791 25.5321 22.0953 25.2019 22.5097 24.604C22.9226 24.0077 23.1305 22.9983 23.1305 21.5772V6.73281C23.1305 5.29924 22.921 4.28039 22.5035 3.67785C22.0844 3.07375 21.3697 2.75291 20.3595 2.71535V0.716797H30.3741V2.71535C29.3733 2.75291 28.6649 3.07375 28.2458 3.67785C27.8267 4.28196 27.6187 5.29924 27.6187 6.73281V13.2215L33.7285 6.54501C34.2289 5.99255 34.5683 5.54808 34.7465 5.21472C34.9248 4.88137 35.0139 4.53862 35.0139 4.18649C35.0139 3.3445 34.4166 2.85307 33.2218 2.71535V0.716797H41.5053V2.71535C40.994 2.76543 40.5311 2.89846 40.112 3.11131C39.6929 3.32572 39.219 3.68724 38.6873 4.19588C38.1556 4.70452 37.4003 5.50112 36.4214 6.58257L31.536 11.9585L39.7132 22.69C40.5498 23.7839 41.1628 24.4976 41.5507 24.8309C41.9385 25.1643 42.4342 25.4194 43.0363 25.5947V27.5917Z" fill="#CBA860"/>
<path d="M68.1557 27.5916H59.1528V25.593C59.8769 25.5555 60.3882 25.4334 60.6838 25.2252C60.9794 25.0171 61.1279 24.6634 61.1279 24.1595C61.1279 23.7197 61.0153 23.1657 60.7917 22.4989L59.9488 19.7836H51.2822L50.5315 22.3863C50.4096 22.801 50.3486 23.247 50.3486 23.7259C50.3486 24.87 51.0069 25.4929 52.3237 25.593V27.5916H45.1724V25.593C46.07 25.5304 46.7706 25.2284 47.2694 24.6869C47.7699 24.1469 48.2077 23.2095 48.5862 21.8761L54.9258 0.317627H58.3099L65.1845 22.0263C65.4706 22.945 65.7427 23.6524 66.0039 24.1485C66.2635 24.6446 66.5606 25.003 66.8921 25.2237C67.2237 25.4443 67.6443 25.5664 68.1557 25.5915V27.5916ZM59.2435 17.5565L55.4919 5.57929L51.939 17.5565H59.2435Z" fill="#CBA860"/>
<path d="M89.8301 19.7445L88.9105 27.5901H70.8579V25.5915C71.8681 25.5289 72.5812 25.1956 72.9941 24.5915C73.4069 23.9873 73.6149 22.9826 73.6149 21.574V6.72964C73.6149 5.29606 73.4085 4.27722 72.9941 3.67468C72.5812 3.07057 71.8681 2.74974 70.8579 2.71218V0.713623H80.8569V2.71218C79.8561 2.74974 79.1477 3.07057 78.7286 3.67468C78.3095 4.27878 78.1015 5.29606 78.1015 6.72964V23.3081C78.1015 24.1501 78.1797 24.701 78.3392 24.9577C78.4971 25.2159 78.8474 25.3442 79.3885 25.3442H82.022C83.0635 25.3442 83.9439 25.1439 84.6632 24.7401C85.3826 24.3379 85.9487 23.8449 86.3631 23.2596C86.7759 22.6743 87.0903 22.0843 87.3045 21.4864C87.5188 20.8901 87.6923 20.3079 87.8253 19.7414H89.8301V19.7445Z" fill="#CBA860"/>
<path d="M102.653 27.5915H92.6543V25.593C93.6755 25.5304 94.3901 25.2001 94.7983 24.6023C95.2064 24.006 95.4113 22.9966 95.4113 21.5755V6.7311C95.4113 5.29753 95.2049 4.27868 94.7905 3.67614C94.3776 3.07204 93.6645 2.75121 92.6543 2.71365V0.715088H102.653V2.71365C101.652 2.75121 100.944 3.07204 100.525 3.67614C100.106 4.28025 99.8979 5.29753 99.8979 6.7311V21.5755C99.8979 22.9966 100.104 24.006 100.519 24.6023C100.932 25.2001 101.645 25.5304 102.655 25.593V27.5915H102.653Z" fill="#CBA860"/>
<path d="M128.172 2.71365C127.182 2.82633 126.48 3.19098 126.067 3.80761C125.654 4.42424 125.446 5.41021 125.446 6.76866V27.8185H123.471L110.425 6.22247V20.3313C110.425 21.275 110.477 22.0575 110.579 22.6789C110.68 23.3017 110.852 23.8135 111.092 24.2157C111.331 24.618 111.642 24.9231 112.025 25.1313C112.408 25.3394 112.91 25.4928 113.534 25.593V27.5915H105.341V25.6305C106.342 25.5429 107.085 25.197 107.57 24.5929C108.055 23.9888 108.297 23.0967 108.297 21.9151V7.03316C108.297 5.41177 108.088 4.2959 107.67 3.68553C107.251 3.07517 106.466 2.75121 105.312 2.71365V0.715088H112.524L123.319 18.7084V7.31643C123.319 5.79521 123.109 4.68872 122.692 3.99697C122.273 3.30523 121.549 2.86545 120.518 2.67608V0.715088H128.175V2.71365H128.172Z" fill="#CBA860"/>
<path d="M152.281 27.5916H143.278V25.593C144.002 25.5555 144.513 25.4334 144.809 25.2252C145.105 25.0171 145.253 24.6634 145.253 24.1595C145.253 23.7197 145.141 23.1657 144.917 22.4989L144.074 19.7836H135.407L134.657 22.3863C134.535 22.801 134.474 23.247 134.474 23.7259C134.474 24.87 135.132 25.4929 136.449 25.593V27.5916H129.298V25.593C130.195 25.5304 130.896 25.2284 131.395 24.6869C131.895 24.1469 132.333 23.2095 132.711 21.8761L139.051 0.317627H142.435L149.31 22.0263C149.596 22.945 149.868 23.6524 150.129 24.1485C150.389 24.6446 150.686 25.003 151.017 25.2237C151.349 25.4443 151.77 25.5664 152.281 25.5915V27.5916ZM143.369 17.5565L139.617 5.57929L136.064 17.5565H143.369Z" fill="#CBA860"/>
<path d="M173.977 2.71365C172.976 2.75121 172.268 3.07204 171.849 3.67614C171.43 4.28025 171.222 5.29753 171.222 6.73111V23.4238C171.222 26.7683 170.479 29.504 168.993 31.6278C167.508 33.7531 165.387 35.1366 162.632 35.7767L162.127 34.0411C163.087 33.6263 163.891 33.1412 164.538 32.5887C165.186 32.0347 165.714 31.1927 166.122 30.0612C166.53 28.9296 166.735 27.4084 166.735 25.4975V6.73111C166.735 5.29753 166.529 4.27868 166.114 3.67614C165.7 3.0736 164.988 2.75121 163.978 2.71365V0.715088H173.977V2.71365Z" fill="#CBA860"/>
<path d="M200.659 2.71375C199.658 2.75131 198.95 3.07214 198.531 3.67624C198.112 4.28035 197.904 5.29763 197.904 6.7312V16.7835C197.904 18.6819 197.694 20.3424 197.276 21.7634C196.857 23.1845 196.247 24.3692 195.447 25.3192C194.645 26.2692 193.67 26.9828 192.522 27.4602C191.375 27.9375 190.075 28.1769 188.625 28.1769C186.583 28.1769 184.874 27.7998 183.496 27.0454C182.118 26.2911 181.082 25.1314 180.387 23.5663C179.693 22.0013 179.346 20.0106 179.346 17.5973V6.73277C179.346 5.29919 179.136 4.28035 178.719 3.67781C178.3 3.0737 177.585 2.75287 176.575 2.71531V0.716756H186.65V2.71531C185.65 2.75287 184.941 3.0737 184.522 3.67781C184.103 4.28192 183.895 5.29919 183.895 6.73277V16.6536C183.895 19.9229 184.408 22.1703 185.434 23.3958C186.46 24.6212 187.856 25.2347 189.622 25.2347C190.582 25.2347 191.442 25.0453 192.202 24.6681C192.962 24.291 193.612 23.7244 194.154 22.9701C194.695 22.2157 195.106 21.2814 195.386 20.1686C195.666 19.0559 195.806 17.7319 195.806 16.1981V6.72964C195.806 5.29606 195.6 4.27722 195.186 3.67468C194.773 3.07057 194.06 2.74974 193.049 2.71218V0.713623H200.659V2.71375Z" fill="#CBA860"/>
<path d="M222.593 19.7445L221.673 27.5901H203.621V25.5915C204.631 25.5289 205.344 25.1956 205.757 24.5915C206.17 23.9873 206.378 22.9826 206.378 21.574V6.72964C206.378 5.29606 206.171 4.27722 205.757 3.67468C205.344 3.07057 204.631 2.74974 203.621 2.71218V0.713623H213.62V2.71218C212.619 2.74974 211.911 3.07057 211.492 3.67468C211.072 4.27878 210.864 5.29606 210.864 6.72964V23.3081C210.864 24.1501 210.943 24.701 211.102 24.9577C211.26 25.2159 211.61 25.3442 212.151 25.3442H214.785C215.826 25.3442 216.707 25.1439 217.426 24.7401C218.146 24.3379 218.712 23.8449 219.126 23.2596C219.539 22.6743 219.853 22.0843 220.067 21.4864C220.282 20.8901 220.455 20.3079 220.588 19.7414H222.593V19.7445Z" fill="#CBA860"/>
<path d="M235.418 27.5915H225.419V25.593C226.44 25.5304 227.155 25.2001 227.563 24.6023C227.971 24.006 228.176 22.9966 228.176 21.5755V6.7311C228.176 5.29753 227.969 4.27868 227.555 3.67614C227.142 3.07204 226.429 2.75121 225.419 2.71365V0.715088H235.418V2.71365C234.417 2.75121 233.708 3.07204 233.289 3.67614C232.87 4.28025 232.662 5.29753 232.662 6.7311V21.5755C232.662 22.9966 232.869 24.006 233.283 24.6023C233.696 25.2001 234.409 25.5304 235.419 25.593V27.5915H235.418Z" fill="#CBA860"/>
<path d="M260.995 27.5916H251.993V25.593C252.717 25.5555 253.228 25.4334 253.524 25.2252C253.819 25.0171 253.968 24.6634 253.968 24.1595C253.968 23.7197 253.855 23.1657 253.632 22.4989L252.789 19.7836H244.122L243.371 22.3863C243.249 22.801 243.188 23.247 243.188 23.7259C243.188 24.87 243.847 25.4929 245.164 25.593V27.5916H238.012V25.593C238.91 25.5304 239.61 25.2284 240.109 24.6869C240.61 24.1469 241.048 23.2095 241.426 21.8761L247.766 0.317627H251.15L258.024 22.0263C258.31 22.945 258.583 23.6524 258.844 24.1485C259.103 24.6446 259.4 25.003 259.732 25.2237C260.063 25.4443 260.484 25.5664 260.995 25.5915V27.5916ZM252.085 17.5565L248.333 5.58085L244.78 17.5581H252.085V17.5565Z" fill="#CBA860"/>
<path d="M64.8988 47.8418C64.3974 48.4947 63.8959 49.0965 63.2946 49.5983C62.1408 50.5509 60.7874 51.4547 59.3828 51.8566C58.3288 52.1587 56.7757 52.1587 56.4228 50.9041C56.3718 50.6531 56.7247 50.5021 56.8245 50.7043C57.4258 52.1099 59.5337 51.2061 60.4345 50.7554C61.8878 50.0537 63.1925 49.05 64.2465 47.8442C64.4461 47.5421 64.6968 47.2424 64.8988 46.9404C64.9987 46.7893 65.2006 46.5384 65.2006 46.3386C65.2006 46.0877 65.001 46.0366 64.799 46.0366C64.0979 46.0366 63.3457 46.3386 62.6934 46.5384C61.3399 46.9892 60.0863 47.6932 58.9325 48.4947C56.4252 50.2512 54.5192 52.6094 53.0148 55.2209C52.6132 55.8738 52.2626 56.5754 51.9121 57.2283C51.5104 58.1321 51.1599 59.0359 50.7583 59.9885C49.0542 64.3053 47.5476 68.7708 46.1453 73.2387C46.0455 73.5407 45.493 73.4385 45.5928 73.0876C45.7437 72.6857 45.8435 72.2838 45.9434 71.9329C47.0461 68.4688 48.049 65.007 49.3537 61.5939C49.9063 60.2394 50.5075 58.8337 51.1599 57.4792C51.9121 55.7738 52.7153 54.0662 53.5163 52.4096C55.6219 48.2438 57.9806 44.1779 60.9893 40.6161C61.0892 40.4651 61.3399 40.6673 61.2401 40.816C59.6846 42.9233 58.2313 45.0817 56.8779 47.34C55.875 49.0965 54.9231 50.8529 54.02 52.6094C56.0259 49.898 58.4844 47.5909 61.7438 46.2852C62.445 45.9831 63.1971 45.7833 63.9493 45.6323C64.5018 45.4813 65.3028 45.2815 65.6533 45.8832C66.0526 46.5384 65.2517 47.3911 64.8988 47.8418Z" fill="black"/>
<path d="M82.7029 46.8892C80.9478 47.0402 78.9907 47.089 77.4864 47.491C75.8822 47.9417 74.4777 48.5946 73.0731 49.4473C72.5717 49.7493 72.1213 50.0002 71.6686 50.3511C71.7197 50.8529 71.7197 51.3547 71.6175 51.9077C71.4666 53.0113 70.9652 54.3171 69.9135 54.9188C69.412 55.1697 68.7597 55.2696 68.2582 54.8677C67.8566 54.4657 67.8079 53.9151 67.9564 53.4132C68.2582 52.1586 69.361 51.206 70.3639 50.4509C70.5148 50.2999 70.7144 50.1489 70.9164 50.0002C70.8653 48.7967 70.6657 47.5909 70.9164 46.3363C71.3668 44.129 73.3239 42.2704 75.5293 41.8196C76.5322 41.6198 78.0366 41.6686 78.3871 42.8233C78.6889 43.7271 78.0853 44.6309 77.3332 45.1327C77.2821 45.1838 77.1823 45.0816 77.2333 44.9817C77.5351 44.531 77.8346 43.978 77.8857 43.4251C77.8857 42.6212 77.1335 42.4214 76.4811 42.4214C75.1277 42.4725 73.823 43.123 72.9199 44.1267C72.0168 45.0793 71.5664 46.234 71.5664 47.5398C71.5154 48.1926 71.5664 48.8455 71.6175 49.496C72.4208 48.9942 73.1729 48.5435 74.0249 48.0904C76.5833 46.6848 79.6918 46.083 82.7006 46.485C82.9536 46.4873 82.9536 46.8892 82.7029 46.8892ZM70.9187 50.904C70.5171 51.2061 70.1155 51.5569 69.7162 51.9588C69.3145 52.4095 68.8641 52.9625 68.7132 53.6154C68.6134 53.8663 68.6134 54.2171 68.9129 54.3681C69.1636 54.4681 69.5142 54.2683 69.7162 54.1172C70.668 53.3645 70.9187 52.0076 70.9187 50.904Z" fill="black"/>
<path d="M100.456 49.2987C99.8034 49.6008 99.2021 50.0004 98.6009 50.3535C94.4894 52.7629 90.7772 55.674 87.4179 58.9872C86.7656 61.2455 86.1132 63.5549 85.4632 65.8133C84.5114 69.0753 83.4063 72.3373 82.1039 75.5505C80.7992 78.6127 79.5966 81.8237 77.5397 84.4839C76.6877 85.6874 75.585 86.8933 74.0783 87.1442C73.426 87.2441 72.7736 87.1442 72.2721 86.7422C71.7707 86.3914 71.571 85.7896 71.4689 85.1856C71.2692 83.68 71.7707 82.0746 72.17 80.6689C72.7225 78.9636 73.4236 77.3558 74.2269 75.8014C77.1358 70.1301 80.8967 64.9095 85.2589 60.2418C85.7093 59.74 86.2107 59.2381 86.6634 58.7874C87.6153 55.5741 88.6693 52.3632 90.0227 49.3521C89.6211 49.8029 89.2195 50.2048 88.8202 50.6068C88.119 51.3084 87.3669 51.9613 86.6147 52.5631C85.8625 53.116 85.1103 53.6667 84.3071 54.0686C83.2043 54.6704 81.0476 55.0723 80.7458 53.3669C80.5461 52.4144 81.1474 51.3596 81.5491 50.5557C81.9507 49.703 82.5009 48.8991 83.1045 48.0975C83.657 47.2936 84.3071 46.4921 85.0105 45.7393C85.361 45.3885 85.7116 45.0376 86.1643 44.7356C86.5149 44.4336 86.9675 44.2337 87.4179 44.0339C87.5178 44.0339 87.5688 44.0851 87.5178 44.1339C87.1161 44.4847 86.7656 44.8866 86.364 45.2375C85.9623 45.5395 85.6118 45.8903 85.31 46.2411C84.6089 46.9939 83.9565 47.8977 83.3552 48.7504C82.9048 49.4033 82.4521 50.1561 82.1016 50.9088C81.9019 51.3108 81.7 51.7615 81.5491 52.2146C81.3982 52.6165 81.2472 53.1184 81.498 53.5203C81.7998 54.0733 82.6007 53.9222 83.1532 53.8223C83.9054 53.5714 84.5578 53.1207 85.1591 52.6676C88.068 50.6602 90.4754 47.9999 92.3814 44.9888C92.6321 44.5869 93.2845 44.9377 93.0338 45.3908C92.6321 46.0437 92.2305 46.6965 91.88 47.3471C90.1249 50.6091 88.8712 54.122 87.8172 57.6861C89.2218 56.2804 90.7772 54.9747 92.3303 53.7712C93.584 52.8186 94.8887 51.9148 96.1911 51.0598C97.4958 50.2559 98.9003 49.6542 100.254 49.0013C100.456 48.8968 100.658 49.1988 100.456 49.2987ZM85.6628 62.3979C85.8625 61.6451 86.0645 60.8924 86.3152 60.1396C85.6628 60.7413 85.0616 61.4453 84.4603 62.0959C80.3976 66.6636 76.7365 71.8819 74.1805 77.4534C73.4793 79.0101 72.827 80.6666 72.4764 82.372C72.3255 83.0736 72.1746 83.8264 72.1746 84.5792C72.1746 85.1321 72.2257 85.7827 72.7272 86.1846C73.2797 86.5866 74.0806 86.4355 74.6331 86.1846C75.3343 85.8826 75.8357 85.3807 76.3372 84.8301C77.3912 83.6266 78.1921 82.2209 78.9443 80.8153C79.6454 79.3609 80.249 77.853 80.899 76.3986C81.6001 74.7931 82.2525 73.1854 82.805 71.5311C83.9077 68.52 84.7598 65.4601 85.6628 62.3979Z" fill="black"/>
<path d="M116.655 48.3949C115.903 49.2987 114.701 50.0003 113.647 50.5022C112.544 51.0551 111.39 51.5059 110.185 51.8079C108.53 52.3098 106.675 52.5607 104.92 52.4097C103.615 52.3586 102.062 51.9078 101.709 50.5022C101.208 48.3949 103.413 46.9381 105.02 46.2364C105.923 45.8856 107.225 45.5348 108.128 46.0366C108.98 46.4874 108.479 47.4423 107.977 47.9441C107.878 47.9953 107.827 47.893 107.878 47.7931C108.228 47.3424 108.479 46.5896 107.678 46.4386C107.177 46.2876 106.575 46.4386 106.074 46.5896C105.122 46.8916 104.168 47.4423 103.365 48.0951C102.812 48.6481 102.311 49.2987 102.413 50.1537C102.464 50.6555 102.763 51.0575 103.216 51.3084C104.219 51.8102 105.473 51.7591 106.526 51.7103C108.231 51.6104 109.937 51.2596 111.541 50.6555C112.393 50.3047 113.245 49.9027 114.048 49.5008C114.852 49.0501 115.604 48.4971 116.405 48.0951C116.604 47.9929 116.804 48.2438 116.655 48.3949Z" fill="black"/>
<path d="M135.109 47.0891C133.907 49.0454 132.101 50.9529 129.944 51.8567C128.539 52.4096 126.232 52.8603 125.38 51.2038C124.679 49.9492 124.978 48.3437 125.029 46.9869C125.08 46.6848 125.08 46.3851 125.029 46.0343C125.029 45.8832 125.029 45.7322 124.978 45.5835C124.827 45.2327 124.477 45.4325 124.226 45.5324C123.274 45.9832 122.371 46.636 121.619 47.34C120.015 48.7944 118.71 50.5532 117.507 52.3097C117.257 52.6117 116.704 52.4607 116.855 52.0588C117.556 49.8005 118.459 47.6421 119.413 45.5348C122.975 37.9071 127.79 30.9788 132.602 24.1039C132.753 23.853 133.203 24.1039 133.004 24.3549C131.75 26.2623 130.445 28.1698 129.192 30.0773C125.029 36.3504 121.066 42.8257 118.359 49.8516C119.311 48.597 120.365 47.3935 121.57 46.4386C122.373 45.7857 123.225 45.1839 124.177 44.782C124.628 44.5822 125.129 44.5822 125.482 44.9818C125.682 45.2838 125.733 45.6834 125.784 46.0366C125.884 47.4422 125.433 48.8479 125.784 50.2535C125.935 50.9064 126.234 51.4082 126.886 51.5593C127.889 51.8613 128.992 51.5082 129.895 51.1085C131.952 50.2047 133.254 48.3484 134.759 46.8428C134.958 46.6895 135.209 46.8893 135.109 47.0891Z" fill="black"/>
<path d="M154.919 46.6384C151.008 48.0929 147.497 50.5533 143.486 51.708C141.83 52.1588 139.925 52.5119 138.269 52.0589C136.916 52.7117 135.01 53.3135 134.056 51.859C133.002 50.3535 134.757 48.4971 135.862 47.5933C136.916 46.7407 138.318 46.0367 139.723 45.9368C140.324 45.7857 140.925 45.7369 141.478 46.0367C142.23 46.3875 142.631 47.1403 142.33 47.9442C142.028 48.7481 141.427 49.4497 140.876 50.0515C140.324 50.6532 139.723 51.1551 139.07 51.557C140.022 51.708 141.025 51.557 141.928 51.406C143.432 51.1039 144.888 50.5533 146.29 49.9516C149.099 48.6969 151.806 47.0915 154.815 46.3387C155.019 46.2876 155.119 46.5873 154.919 46.6384ZM137.417 51.6569C136.465 51.104 135.713 50.0515 136.113 48.8456C136.263 48.3949 136.514 48.0417 136.814 47.6909C136.563 47.8419 136.363 47.9929 136.113 48.1928C135.511 48.7457 134.859 49.3963 134.557 50.2002C134.406 50.6021 134.357 51.0528 134.557 51.4548C134.808 51.8056 135.258 52.0077 135.66 52.0565C136.263 52.11 136.865 51.9078 137.417 51.6569ZM140.927 46.5385C139.725 46.2365 138.218 47.1914 137.417 48.0441C137.016 48.446 136.665 48.8967 136.665 49.4497C136.614 50.1026 137.067 50.6532 137.568 51.0064C137.768 51.1063 137.97 51.2573 138.169 51.3084C138.822 50.9576 139.423 50.5556 139.925 50.0538C140.477 49.5008 140.978 48.9502 141.378 48.3484C141.577 47.9976 141.879 47.5445 141.68 47.0938C141.58 46.7894 141.229 46.5873 140.927 46.5385Z" fill="black"/>
<path d="M175.128 27.3659C174.977 27.8677 174.778 28.3185 174.576 28.7715C174.074 29.7752 173.473 30.6279 172.821 31.4829C171.416 33.2905 169.812 34.9471 168.057 36.4526C165.299 38.762 162.239 40.9205 158.829 42.2239C158.778 42.3238 158.729 42.4237 158.629 42.5747C157.677 44.3823 156.874 46.2898 156.222 48.2461C155.569 50.3534 155.219 52.5118 155.119 54.7213C155.068 55.1233 154.467 55.1233 154.467 54.7213C154.216 52.1122 154.917 49.4519 155.771 47.0426C156.575 44.8354 157.626 42.6769 158.831 40.6184C160.888 37.1055 163.395 33.8435 166.304 30.9811C167.757 29.5754 169.313 28.2697 170.917 27.0662C171.72 26.4644 172.572 25.8627 173.424 25.3608C174.125 25.01 175.23 24.9101 175.379 25.9626C175.43 26.411 175.279 26.9128 175.128 27.3659ZM174.427 25.7605C174.276 25.7605 174.026 25.8603 173.875 25.9115C173.071 26.3134 172.27 26.9663 171.567 27.5169C170.764 28.0699 170.012 28.6716 169.259 29.3245C167.806 30.528 166.45 31.8849 165.148 33.2905C162.84 35.8509 160.786 38.6598 159.131 41.6733C159.182 41.6733 159.23 41.6733 159.23 41.6733C159.281 41.6221 159.33 41.6221 159.381 41.6221C161.085 40.7694 162.741 39.7657 164.245 38.6598C165.749 37.605 167.154 36.5014 168.507 35.2468C170.063 33.7924 171.516 32.2357 172.721 30.528C173.373 29.6753 173.923 28.7715 174.276 27.8166C174.476 27.3659 174.627 26.864 174.678 26.411C174.729 26.1601 174.778 25.8604 174.427 25.7605Z" fill="black"/>
<path d="M184.658 46.6384C180.747 48.0929 177.236 50.5533 173.225 51.708C171.57 52.1588 169.664 52.5119 168.008 52.0589C166.655 52.7117 164.749 53.3135 163.795 51.859C162.741 50.3535 164.496 48.4971 165.601 47.5933C166.655 46.7407 168.057 46.0367 169.462 45.9368C170.063 45.7857 170.664 45.7369 171.217 46.0367C171.969 46.3875 172.37 47.1403 172.069 47.9442C171.767 48.7481 171.166 49.4497 170.615 50.0515C170.063 50.6532 169.462 51.1551 168.809 51.557C169.761 51.708 170.764 51.557 171.667 51.406C173.171 51.1039 174.627 50.5533 176.029 49.9516C178.838 48.6969 181.545 47.0915 184.554 46.3387C184.758 46.2876 184.858 46.5873 184.658 46.6384ZM167.156 51.6569C166.204 51.104 165.452 50.0515 165.852 48.8456C166.002 48.3949 166.253 48.0417 166.553 47.6909C166.302 47.8419 166.102 47.9929 165.852 48.1928C165.25 48.7457 164.598 49.3963 164.296 50.2002C164.145 50.6021 164.096 51.0528 164.296 51.4548C164.547 51.8056 164.997 52.0077 165.399 52.0565C166.002 52.11 166.604 51.9078 167.156 51.6569ZM170.666 46.5385C169.464 46.2365 167.957 47.1914 167.156 48.0441C166.755 48.446 166.404 48.8967 166.404 49.4497C166.353 50.1026 166.806 50.6532 167.307 51.0064C167.507 51.1063 167.709 51.2573 167.908 51.3084C168.561 50.9576 169.162 50.5556 169.664 50.0538C170.216 49.5008 170.718 48.9502 171.117 48.3484C171.316 47.9976 171.618 47.5445 171.419 47.0938C171.319 46.7894 170.968 46.5873 170.666 46.5385Z" fill="black"/>
<path d="M190.827 45.7346C190.274 46.5385 189.773 47.3401 189.322 48.1927C187.618 51.4548 186.362 54.9189 184.858 58.2808C184.507 59.0847 184.157 59.8863 183.755 60.6902C184.909 60.7901 186.063 61.0921 187.165 61.4941C187.316 61.594 187.316 61.8449 187.114 61.8449C186.362 61.745 185.661 61.6939 184.909 61.6451C184.407 61.594 183.906 61.5452 183.405 61.5452C182.703 62.9508 182 64.3565 181.299 65.7621C178.641 70.8317 175.432 75.9013 171.019 79.5653C168.913 81.3729 166.506 82.7785 163.848 83.5801C162.494 83.982 160.939 84.2329 159.585 83.68C158.03 83.0782 157.529 81.4728 157.529 79.865C157.628 76.3521 159.585 73.1388 161.791 70.5297C163.848 68.0715 166.304 66.013 169.062 64.3565C171.771 62.6999 174.729 61.4964 177.837 60.9434C179.541 60.6414 181.299 60.4927 183.003 60.5926C183.806 58.8361 184.607 57.0285 185.359 55.1722C186.211 53.2647 186.963 51.3084 187.918 49.4009C187.567 49.7517 187.217 50.0538 186.864 50.3535C186.211 50.9064 185.559 51.4571 184.858 51.9589C184.157 52.4096 183.353 53.0137 182.55 53.1624C181.849 53.2623 181.197 52.8116 181.146 52.1076C181.095 51.3548 181.596 50.6532 181.998 50.0491C183.1 48.5947 184.405 47.2889 185.961 46.3851C186.613 46.0343 187.314 45.6835 188.066 45.5813C188.668 45.5301 189.22 45.6812 189.821 45.8833C189.921 45.6835 190.072 45.5325 190.172 45.3815C190.425 44.9818 191.077 45.3327 190.827 45.7346ZM182.553 61.4941C181.851 61.4941 181.148 61.4941 180.447 61.5452C178.943 61.6451 177.487 61.896 176.034 62.2979C173.074 63.1018 170.267 64.4564 167.76 66.2128C165.201 67.9693 162.896 70.1788 161.09 72.7369C160.087 74.1425 159.284 75.6481 158.782 77.2535C158.531 78.0574 158.381 78.9101 158.332 79.7628C158.332 80.5667 158.383 81.4681 158.884 82.1721C159.736 83.3756 161.491 83.3268 162.796 83.0759C164.05 82.7739 165.355 82.272 166.508 81.6702C168.865 80.4667 170.973 78.7591 172.777 76.8516C176.637 72.8368 179.446 67.8671 181.905 62.8486C182.151 62.3978 182.353 61.9471 182.553 61.4941ZM189.673 46.1365C189.071 46.0366 188.419 45.9367 187.818 46.1365C187.066 46.3364 186.413 46.7894 185.761 47.2402C184.456 48.0928 183.353 49.2476 182.45 50.5533C182.149 50.9552 181.547 51.8079 181.898 52.3097C182.299 52.9115 183.453 52.0077 183.853 51.7568C186.114 50.3023 188.12 48.3949 189.673 46.1365Z" fill="black"/>
<path d="M212.993 49.2987C212.34 49.6008 211.739 50.0004 211.138 50.3535C207.026 52.7629 203.314 55.674 199.955 58.9872C199.303 61.2455 198.65 63.5549 198 65.8133C197.048 69.0753 195.943 72.3373 194.641 75.5505C193.336 78.6127 192.134 81.8237 190.077 84.4839C189.225 85.6874 188.122 86.8933 186.615 87.1442C185.963 87.2441 185.311 87.1442 184.809 86.7422C184.308 86.3914 184.108 85.7896 184.006 85.1856C183.806 83.68 184.308 82.0746 184.707 80.6689C185.26 78.9636 185.961 77.3558 186.764 75.8014C189.673 70.1301 193.434 64.9095 197.796 60.2418C198.246 59.74 198.748 59.2381 199.2 58.7874C200.152 55.5741 201.206 52.3632 202.56 49.3521C202.158 49.8029 201.757 50.2048 201.357 50.6068C200.656 51.3084 199.904 51.9613 199.152 52.5631C198.4 53.116 197.647 53.6667 196.844 54.0686C195.741 54.6704 193.585 55.0723 193.283 53.3669C193.083 52.4144 193.684 51.3596 194.086 50.5557C194.488 49.703 195.038 48.8991 195.642 48.0975C196.194 47.2936 196.844 46.4921 197.548 45.7393C197.898 45.3885 198.249 45.0376 198.701 44.7356C199.052 44.4336 199.505 44.2337 199.955 44.0339C200.055 44.0339 200.106 44.0851 200.055 44.1339C199.653 44.4847 199.303 44.8866 198.901 45.2375C198.499 45.5395 198.149 45.8903 197.847 46.2411C197.146 46.9939 196.494 47.8977 195.892 48.7504C195.442 49.4033 194.989 50.1561 194.639 50.9088C194.439 51.3108 194.237 51.7615 194.086 52.2146C193.935 52.6165 193.784 53.1184 194.035 53.5203C194.337 54.0733 195.138 53.9222 195.69 53.8223C196.442 53.5714 197.095 53.1207 197.696 52.6676C200.605 50.6602 203.012 47.9999 204.918 44.9888C205.169 44.5869 205.822 44.9377 205.571 45.3908C205.169 46.0437 204.768 46.6965 204.417 47.3471C202.662 50.6091 201.408 54.122 200.354 57.6861C201.759 56.2804 203.314 54.9747 204.867 53.7712C206.121 52.8186 207.426 51.9148 208.728 51.0598C210.033 50.2559 211.437 49.6542 212.791 49.0013C212.993 48.8968 213.195 49.1988 212.993 49.2987ZM198.2 62.3979C198.4 61.6451 198.602 60.8924 198.852 60.1396C198.2 60.7413 197.599 61.4453 196.997 62.0959C192.935 66.6636 189.274 71.8819 186.718 77.4534C186.016 79.0101 185.364 80.6666 185.014 82.372C184.863 83.0736 184.712 83.8264 184.712 84.5792C184.712 85.1321 184.763 85.7827 185.264 86.1846C185.817 86.5866 186.618 86.4355 187.17 86.1846C187.871 85.8826 188.373 85.3807 188.874 84.8301C189.928 83.6266 190.729 82.2209 191.481 80.8153C192.182 79.3609 192.786 77.853 193.436 76.3986C194.137 74.7931 194.79 73.1854 195.342 71.5311C196.445 68.52 197.297 65.4601 198.2 62.3979Z" fill="black"/>
</svg>
