<svg width="54" height="40" viewBox="0 0 54 40" fill="none" xmlns="http://www.w3.org/2000/svg">
<path d="M43.1686 40C40.1489 40 37.5887 38.835 35.4881 36.5049C33.3874 34.3042 32.3371 31.2621 32.3371 27.3786C32.3371 21.6829 33.2561 17.0874 35.0942 13.5922C36.801 10.0971 38.7047 7.31391 40.8053 5.24271C43.1686 2.91262 45.9257 1.16505 49.0766 3.38428e-06L51.046 3.1068C48.814 4.1424 46.8447 5.37216 45.1379 6.79611C43.6937 7.96116 42.3808 9.44984 41.1992 11.2621C39.8863 13.0744 39.2299 15.2104 39.2299 17.6699C39.2299 18.1877 39.2955 18.6408 39.4268 19.0291C39.5581 19.288 39.6894 19.5469 39.8207 19.8058L40.2145 20.5825C40.4771 20.3236 40.871 20.1295 41.3961 20C42.4465 19.7411 43.3655 19.6116 44.1532 19.6116C47.1729 19.6116 49.6018 20.4531 51.4398 22.1359C53.1466 23.9482 54 26.343 54 29.3204C54 32.2977 52.9497 34.822 50.849 36.8932C48.7484 38.9644 46.1882 40 43.1686 40Z" fill="#CBA860"/>
<path d="M10.8314 40C7.81176 40 5.2516 38.835 3.15096 36.5049C1.05032 34.3042 -3.05081e-06 31.2621 -2.7113e-06 27.3786C-2.21336e-06 21.6828 0.919027 17.0874 2.75709 13.5922C4.46386 10.0971 6.36757 7.31391 8.46822 5.24271C10.8314 2.91261 13.5885 1.16505 16.7395 5.57281e-07L18.7089 3.1068C16.4769 4.1424 14.5076 5.37216 12.8008 6.79611C11.3566 7.96116 10.0437 9.44984 8.86209 11.2621C7.54918 13.0744 6.89273 15.2104 6.89273 17.6699C6.89273 18.1877 6.95838 18.6408 7.08967 19.0291C7.22096 19.288 7.35225 19.5469 7.48354 19.8058L7.87741 20.5825C8.13999 20.3236 8.53386 20.1294 9.05902 20C10.1093 19.7411 11.0284 19.6116 11.8161 19.6116C14.8358 19.6116 17.2647 20.4531 19.1027 22.1359C20.8095 23.9482 21.6629 26.343 21.6629 29.3204C21.6629 32.2977 20.6126 34.822 18.5119 36.8932C16.4113 38.9644 13.8511 40 10.8314 40Z" fill="#CBA860"/>
</svg>
