<svg width="31" height="30" viewBox="0 0 31 30" fill="none" xmlns="http://www.w3.org/2000/svg">
<g clip-path="url(#clip0_8_521)">
<path d="M15.1699 8.125C13.8102 8.125 12.481 8.52821 11.3504 9.28365C10.2198 10.0391 9.3386 11.1128 8.81825 12.3691C8.2979 13.6253 8.16175 15.0076 8.42702 16.3412C8.6923 17.6749 9.34708 18.8999 10.3086 19.8614C11.27 20.8228 12.4951 21.4776 13.8287 21.7429C15.1623 22.0082 16.5446 21.872 17.8009 21.3517C19.0571 20.8313 20.1308 19.9501 20.8863 18.8195C21.6417 17.689 22.0449 16.3597 22.0449 15C22.0429 13.1773 21.3179 11.4298 20.029 10.1409C18.7401 8.85205 16.9927 8.12706 15.1699 8.125ZM15.1699 20.625C14.0574 20.625 12.9699 20.2951 12.0448 19.677C11.1198 19.0589 10.3988 18.1804 9.9731 17.1526C9.54736 16.1248 9.43596 14.9938 9.653 13.9026C9.87005 12.8115 10.4058 11.8092 11.1924 11.0225C11.9791 10.2359 12.9814 9.70012 14.0725 9.48308C15.1637 9.26604 16.2947 9.37743 17.3225 9.80318C18.3503 10.2289 19.2289 10.9499 19.8469 11.8749C20.465 12.7999 20.7949 13.8875 20.7949 15C20.7932 16.4913 20.2001 17.9211 19.1455 18.9756C18.091 20.0301 16.6612 20.6233 15.1699 20.625ZM22.0449 0H8.29492C6.14079 0.00243996 4.07558 0.859248 2.55237 2.38245C1.02917 3.90566 0.172362 5.97086 0.169922 8.125V21.875C0.172362 24.0291 1.02917 26.0943 2.55237 27.6175C4.07558 29.1408 6.14079 29.9976 8.29492 30H22.0449C24.1991 29.9976 26.2643 29.1408 27.7875 27.6175C29.3107 26.0943 30.1675 24.0291 30.1699 21.875V8.125C30.1675 5.97086 29.3107 3.90566 27.7875 2.38245C26.2643 0.859248 24.1991 0.00243996 22.0449 0ZM28.9199 21.875C28.9179 23.6977 28.1929 25.4452 26.904 26.7341C25.6151 28.023 23.8677 28.7479 22.0449 28.75H8.29492C6.47219 28.7479 4.7247 28.023 3.43584 26.7341C2.14697 25.4452 1.42198 23.6977 1.41992 21.875V8.125C1.42198 6.30227 2.14697 4.55478 3.43584 3.26591C4.7247 1.97705 6.47219 1.25206 8.29492 1.25H22.0449C23.8677 1.25206 25.6151 1.97705 26.904 3.26591C28.1929 4.55478 28.9179 6.30227 28.9199 8.125V21.875ZM24.5449 6.875C24.5449 7.12223 24.4716 7.3639 24.3343 7.56946C24.1969 7.77502 24.0017 7.93524 23.7733 8.02985C23.5449 8.12446 23.2935 8.14921 23.0511 8.10098C22.8086 8.05275 22.5859 7.9337 22.411 7.75888C22.2362 7.58407 22.1172 7.36134 22.0689 7.11886C22.0207 6.87639 22.0455 6.62505 22.1401 6.39665C22.2347 6.16824 22.3949 5.97301 22.6005 5.83566C22.806 5.69831 23.0477 5.625 23.2949 5.625C23.6263 5.62538 23.944 5.7572 24.1784 5.99154C24.4127 6.22587 24.5445 6.5436 24.5449 6.875Z" fill="black"/>
</g>
<defs>
<clipPath id="clip0_8_521">
<rect width="30" height="30" fill="white" transform="translate(0.169922)"/>
</clipPath>
</defs>
</svg>
